<mxfile host="65bd71144e">
    <diagram id="4l30b2tjH2T-zGRCBpMZ" name="Page-1">
        <mxGraphModel dx="9732" dy="4108" grid="1" gridSize="10" guides="1" tooltips="1" connect="1" arrows="1" fold="1" page="0" pageScale="1" pageWidth="850" pageHeight="1100" math="0" shadow="0">
            <root>
                <mxCell id="0"/>
                <mxCell id="1" parent="0"/>
                <mxCell id="192" value="" style="rounded=1;whiteSpace=wrap;html=1;" vertex="1" parent="1">
                    <mxGeometry x="-2240" y="-780" width="1290" height="2240" as="geometry"/>
                </mxCell>
                <mxCell id="167" value="" style="rounded=0;whiteSpace=wrap;html=1;" vertex="1" parent="1">
                    <mxGeometry x="-1840" y="-680" width="750" height="2030" as="geometry"/>
                </mxCell>
                <mxCell id="33" value="UC 2&lt;br&gt;&lt;br&gt;Retrieve all users" style="ellipse;whiteSpace=wrap;html=1;" parent="1" vertex="1">
                    <mxGeometry x="-1320" y="990" width="170" height="60" as="geometry"/>
                </mxCell>
                <mxCell id="186" style="edgeStyle=none;html=1;entryX=0;entryY=0.5;entryDx=0;entryDy=0;" edge="1" parent="1" source="28" target="33">
                    <mxGeometry relative="1" as="geometry"/>
                </mxCell>
                <mxCell id="187" style="edgeStyle=none;html=1;entryX=0;entryY=0.5;entryDx=0;entryDy=0;" edge="1" parent="1" source="28" target="39">
                    <mxGeometry relative="1" as="geometry"/>
                </mxCell>
                <mxCell id="188" style="edgeStyle=none;html=1;entryX=0;entryY=0.5;entryDx=0;entryDy=0;" edge="1" parent="1" source="28" target="41">
                    <mxGeometry relative="1" as="geometry"/>
                </mxCell>
                <mxCell id="189" style="edgeStyle=none;html=1;entryX=0;entryY=0.5;entryDx=0;entryDy=0;" edge="1" parent="1" source="28" target="43">
                    <mxGeometry relative="1" as="geometry"/>
                </mxCell>
                <mxCell id="28" value="Admin" style="shape=umlActor;verticalLabelPosition=bottom;verticalAlign=top;html=1;outlineConnect=0;" parent="1" vertex="1">
                    <mxGeometry x="-2120" y="1120" width="30" height="60" as="geometry"/>
                </mxCell>
                <mxCell id="153" style="edgeStyle=none;html=1;entryX=0;entryY=0.5;entryDx=0;entryDy=0;" edge="1" parent="1" source="31" target="35">
                    <mxGeometry relative="1" as="geometry"/>
                </mxCell>
                <mxCell id="156" style="edgeStyle=none;html=1;entryX=0;entryY=0.5;entryDx=0;entryDy=0;" edge="1" parent="1" source="31" target="60">
                    <mxGeometry relative="1" as="geometry"/>
                </mxCell>
                <mxCell id="157" style="edgeStyle=none;html=1;entryX=0;entryY=0.5;entryDx=0;entryDy=0;" edge="1" parent="1" source="31" target="70">
                    <mxGeometry relative="1" as="geometry"/>
                </mxCell>
                <mxCell id="158" style="edgeStyle=none;html=1;entryX=0;entryY=0.5;entryDx=0;entryDy=0;" edge="1" parent="1" source="31" target="77">
                    <mxGeometry relative="1" as="geometry"/>
                </mxCell>
                <mxCell id="159" style="edgeStyle=none;html=1;entryX=0;entryY=0.5;entryDx=0;entryDy=0;" edge="1" parent="1" source="31" target="87">
                    <mxGeometry relative="1" as="geometry"/>
                </mxCell>
                <mxCell id="160" style="edgeStyle=none;html=1;entryX=0;entryY=0.5;entryDx=0;entryDy=0;" edge="1" parent="1" source="31" target="94">
                    <mxGeometry relative="1" as="geometry"/>
                </mxCell>
                <mxCell id="161" style="edgeStyle=none;html=1;entryX=0;entryY=0.5;entryDx=0;entryDy=0;" edge="1" parent="1" source="31" target="104">
                    <mxGeometry relative="1" as="geometry"/>
                </mxCell>
                <mxCell id="163" style="edgeStyle=none;html=1;entryX=0;entryY=0.5;entryDx=0;entryDy=0;" edge="1" parent="1" source="31" target="109">
                    <mxGeometry relative="1" as="geometry"/>
                </mxCell>
                <mxCell id="164" style="edgeStyle=none;html=1;entryX=0;entryY=0.5;entryDx=0;entryDy=0;" edge="1" parent="1" source="31" target="106">
                    <mxGeometry relative="1" as="geometry"/>
                </mxCell>
                <mxCell id="165" style="edgeStyle=none;html=1;entryX=0;entryY=0.5;entryDx=0;entryDy=0;" edge="1" parent="1" source="31" target="107">
                    <mxGeometry relative="1" as="geometry"/>
                </mxCell>
                <mxCell id="166" style="edgeStyle=none;html=1;entryX=0;entryY=0.5;entryDx=0;entryDy=0;" edge="1" parent="1" source="31" target="110">
                    <mxGeometry relative="1" as="geometry"/>
                </mxCell>
                <mxCell id="31" value="Viewer" style="shape=umlActor;verticalLabelPosition=bottom;verticalAlign=top;html=1;outlineConnect=0;" parent="1" vertex="1">
                    <mxGeometry x="-2120" y="-200" width="30" height="60" as="geometry"/>
                </mxCell>
                <mxCell id="170" style="edgeStyle=none;html=1;entryX=0;entryY=0.5;entryDx=0;entryDy=0;" edge="1" parent="1" source="32" target="57">
                    <mxGeometry relative="1" as="geometry"/>
                </mxCell>
                <mxCell id="171" style="edgeStyle=none;html=1;entryX=0;entryY=0.5;entryDx=0;entryDy=0;" edge="1" parent="1" source="32" target="64">
                    <mxGeometry relative="1" as="geometry"/>
                </mxCell>
                <mxCell id="172" style="edgeStyle=none;html=1;entryX=0;entryY=0.5;entryDx=0;entryDy=0;" edge="1" parent="1" source="32" target="67">
                    <mxGeometry relative="1" as="geometry"/>
                </mxCell>
                <mxCell id="173" style="edgeStyle=none;html=1;entryX=0;entryY=0.5;entryDx=0;entryDy=0;" edge="1" parent="1" source="32" target="74">
                    <mxGeometry relative="1" as="geometry"/>
                </mxCell>
                <mxCell id="174" style="edgeStyle=none;html=1;entryX=0;entryY=0.5;entryDx=0;entryDy=0;" edge="1" parent="1" source="32" target="81">
                    <mxGeometry relative="1" as="geometry"/>
                </mxCell>
                <mxCell id="175" style="edgeStyle=none;html=1;entryX=0;entryY=0.5;entryDx=0;entryDy=0;" edge="1" parent="1" source="32" target="84">
                    <mxGeometry relative="1" as="geometry"/>
                </mxCell>
                <mxCell id="176" style="edgeStyle=none;html=1;entryX=0;entryY=0.5;entryDx=0;entryDy=0;" edge="1" parent="1" source="32" target="91">
                    <mxGeometry relative="1" as="geometry"/>
                </mxCell>
                <mxCell id="177" style="edgeStyle=none;html=1;entryX=0;entryY=0.5;entryDx=0;entryDy=0;" edge="1" parent="1" source="32" target="98">
                    <mxGeometry relative="1" as="geometry"/>
                </mxCell>
                <mxCell id="178" style="edgeStyle=none;html=1;entryX=0;entryY=0.5;entryDx=0;entryDy=0;" edge="1" parent="1" source="32" target="101">
                    <mxGeometry relative="1" as="geometry"/>
                </mxCell>
                <mxCell id="179" style="edgeStyle=none;html=1;entryX=0;entryY=0.5;entryDx=0;entryDy=0;" edge="1" parent="1" source="32" target="105">
                    <mxGeometry relative="1" as="geometry"/>
                </mxCell>
                <mxCell id="32" value="Operator" style="shape=umlActor;verticalLabelPosition=bottom;verticalAlign=top;html=1;outlineConnect=0;" parent="1" vertex="1">
                    <mxGeometry x="-2120" y="525" width="30" height="60" as="geometry"/>
                </mxCell>
                <mxCell id="35" value="UC 1&lt;br&gt;&lt;br&gt;User authentication" style="ellipse;whiteSpace=wrap;html=1;" parent="1" vertex="1">
                    <mxGeometry x="-1710" y="-620" width="170" height="60" as="geometry"/>
                </mxCell>
                <mxCell id="39" value="UC 3&lt;br&gt;&lt;br&gt;Create a new users" style="ellipse;whiteSpace=wrap;html=1;" parent="1" vertex="1">
                    <mxGeometry x="-1320" y="1060" width="170" height="60" as="geometry"/>
                </mxCell>
                <mxCell id="41" value="UC 4&lt;br&gt;&lt;br&gt;Retrieve a specific user" style="ellipse;whiteSpace=wrap;html=1;" parent="1" vertex="1">
                    <mxGeometry x="-1320" y="1130" width="170" height="60" as="geometry"/>
                </mxCell>
                <mxCell id="43" value="UC 5&lt;br&gt;&lt;br&gt;Delete a user" style="ellipse;whiteSpace=wrap;html=1;" parent="1" vertex="1">
                    <mxGeometry x="-1320" y="1200" width="170" height="60" as="geometry"/>
                </mxCell>
                <mxCell id="53" value="UC 6&amp;nbsp;&lt;br&gt;&lt;br&gt;Retrieve all networks" style="ellipse;whiteSpace=wrap;html=1;" parent="1" vertex="1">
                    <mxGeometry x="-1710" y="-550" width="170" height="60" as="geometry"/>
                </mxCell>
                <mxCell id="57" value="UC 7 &lt;br&gt;&lt;br&gt;Create a new network" style="ellipse;whiteSpace=wrap;html=1;" parent="1" vertex="1">
                    <mxGeometry x="-1510" y="280" width="170" height="60" as="geometry"/>
                </mxCell>
                <mxCell id="60" value="UC 8&lt;br&gt;&lt;br&gt;Retrieve a specific &lt;br&gt;network" style="ellipse;whiteSpace=wrap;html=1;" parent="1" vertex="1">
                    <mxGeometry x="-1710" y="-480" width="170" height="60" as="geometry"/>
                </mxCell>
                <mxCell id="64" value="UC 9&lt;br&gt;&lt;br&gt;Update a netowrk" style="ellipse;whiteSpace=wrap;html=1;" parent="1" vertex="1">
                    <mxGeometry x="-1510" y="345" width="170" height="60" as="geometry"/>
                </mxCell>
                <mxCell id="67" value="UC 10 &lt;br&gt;&lt;br&gt;Delete a netowrk" style="ellipse;whiteSpace=wrap;html=1;" parent="1" vertex="1">
                    <mxGeometry x="-1510" y="410" width="170" height="60" as="geometry"/>
                </mxCell>
                <mxCell id="70" value="UC 11&lt;br&gt;&lt;br&gt;Retrieve all gateways of a&amp;nbsp; netowrk" style="ellipse;whiteSpace=wrap;html=1;" parent="1" vertex="1">
                    <mxGeometry x="-1710" y="-410" width="170" height="60" as="geometry"/>
                </mxCell>
                <mxCell id="74" value="UC 12&lt;br&gt;&lt;br&gt;Create a gateway for a &lt;br&gt;specific network" style="ellipse;whiteSpace=wrap;html=1;" parent="1" vertex="1">
                    <mxGeometry x="-1510" y="480" width="170" height="60" as="geometry"/>
                </mxCell>
                <mxCell id="77" value="UC 13&amp;nbsp;&lt;br&gt;&lt;br&gt;Retrieve a specific &lt;br&gt;gateway" style="ellipse;whiteSpace=wrap;html=1;" parent="1" vertex="1">
                    <mxGeometry x="-1710" y="-340" width="170" height="60" as="geometry"/>
                </mxCell>
                <mxCell id="81" value="UC 14&lt;br&gt;&lt;br&gt;Update a gateway&amp;nbsp;" style="ellipse;whiteSpace=wrap;html=1;" parent="1" vertex="1">
                    <mxGeometry x="-1510" y="550" width="170" height="60" as="geometry"/>
                </mxCell>
                <mxCell id="84" value="UC 15&lt;br&gt;&lt;br&gt;Delete a gateway&amp;nbsp;" style="ellipse;whiteSpace=wrap;html=1;" parent="1" vertex="1">
                    <mxGeometry x="-1510" y="620" width="170" height="60" as="geometry"/>
                </mxCell>
                <mxCell id="87" value="UC 16&lt;br&gt;&lt;br&gt;Retrieve all sensors of a gateway" style="ellipse;whiteSpace=wrap;html=1;" parent="1" vertex="1">
                    <mxGeometry x="-1710" y="-270" width="170" height="60" as="geometry"/>
                </mxCell>
                <mxCell id="91" value="UC 17&lt;br&gt;&lt;br&gt;Create a new sensor for a gateway" style="ellipse;whiteSpace=wrap;html=1;" parent="1" vertex="1">
                    <mxGeometry x="-1510" y="690" width="170" height="60" as="geometry"/>
                </mxCell>
                <mxCell id="94" value="UC 18&lt;br&gt;&lt;br&gt;Retrieve a specific sensor" style="ellipse;whiteSpace=wrap;html=1;" parent="1" vertex="1">
                    <mxGeometry x="-1710" y="-200" width="170" height="60" as="geometry"/>
                </mxCell>
                <mxCell id="98" value="UC 19&lt;br&gt;&lt;br&gt;Update a sensor" style="ellipse;whiteSpace=wrap;html=1;" parent="1" vertex="1">
                    <mxGeometry x="-1510" y="760" width="170" height="60" as="geometry"/>
                </mxCell>
                <mxCell id="101" value="UC 20&lt;br&gt;&lt;br&gt;Delete a sensor" style="ellipse;whiteSpace=wrap;html=1;" parent="1" vertex="1">
                    <mxGeometry x="-1510" y="830" width="170" height="60" as="geometry"/>
                </mxCell>
                <mxCell id="104" value="UC 21&lt;br&gt;Retrieve meaasurements for&lt;br&gt;sensor in a gateway" style="ellipse;whiteSpace=wrap;html=1;" parent="1" vertex="1">
                    <mxGeometry x="-1710" y="-130" width="170" height="60" as="geometry"/>
                </mxCell>
                <mxCell id="105" value="UC 24&amp;nbsp;&lt;br&gt;&lt;br&gt;Store sensor &lt;br&gt;measurements" style="ellipse;whiteSpace=wrap;html=1;" parent="1" vertex="1">
                    <mxGeometry x="-1510" y="900" width="170" height="60" as="geometry"/>
                </mxCell>
                <mxCell id="106" value="UC 25&lt;br&gt;&lt;br&gt;Retrieve sensor &lt;br&gt;measurements" style="ellipse;whiteSpace=wrap;html=1;" parent="1" vertex="1">
                    <mxGeometry x="-1710" y="80" width="170" height="60" as="geometry"/>
                </mxCell>
                <mxCell id="107" value="&lt;div&gt;UC 26&lt;br&gt;&lt;br&gt;Retrieve sensor statistics&lt;/div&gt;" style="ellipse;whiteSpace=wrap;html=1;" parent="1" vertex="1">
                    <mxGeometry x="-1710" y="150" width="170" height="60" as="geometry"/>
                </mxCell>
                <mxCell id="108" value="UC 22&lt;div&gt;&lt;br&gt;&lt;div&gt;Retrieve sensors statistics for&lt;br&gt;&amp;nbsp;a network&lt;/div&gt;&lt;/div&gt;" style="ellipse;whiteSpace=wrap;html=1;" parent="1" vertex="1">
                    <mxGeometry x="-1710" y="-60" width="170" height="60" as="geometry"/>
                </mxCell>
                <mxCell id="109" value="UC 23&lt;div&gt;&lt;br&gt;&lt;/div&gt;&lt;div&gt;Retrieve outlier measuremetns for a network&lt;/div&gt;" style="ellipse;whiteSpace=wrap;html=1;" parent="1" vertex="1">
                    <mxGeometry x="-1710" y="10" width="170" height="60" as="geometry"/>
                </mxCell>
                <mxCell id="110" value="UC 27&lt;br&gt;&lt;br&gt;Retrieve outlier sensor measurements" style="ellipse;whiteSpace=wrap;html=1;" parent="1" vertex="1">
                    <mxGeometry x="-1710" y="220" width="170" height="60" as="geometry"/>
                </mxCell>
                <mxCell id="155" style="edgeStyle=none;html=1;entryX=0;entryY=0.667;entryDx=0;entryDy=0;entryPerimeter=0;" edge="1" parent="1" source="31" target="53">
                    <mxGeometry relative="1" as="geometry"/>
                </mxCell>
                <mxCell id="162" style="edgeStyle=none;html=1;entryX=0;entryY=0.5;entryDx=0;entryDy=0;" edge="1" parent="1" source="31" target="108">
                    <mxGeometry relative="1" as="geometry"/>
                </mxCell>
                <mxCell id="168" value="&lt;font style=&quot;font-size: 24px;&quot;&gt;SYSTEM&lt;/font&gt;" style="text;html=1;align=center;verticalAlign=middle;whiteSpace=wrap;rounded=0;" vertex="1" parent="1">
                    <mxGeometry x="-1495" y="-650" width="60" height="30" as="geometry"/>
                </mxCell>
                <mxCell id="190" value="" style="shape=flexArrow;endArrow=classic;html=1;" edge="1" parent="1">
                    <mxGeometry width="50" height="50" relative="1" as="geometry">
                        <mxPoint x="-2105.45" y="-100" as="sourcePoint"/>
                        <mxPoint x="-2105.45" y="510" as="targetPoint"/>
                    </mxGeometry>
                </mxCell>
                <mxCell id="191" value="" style="shape=flexArrow;endArrow=classic;html=1;" edge="1" parent="1">
                    <mxGeometry width="50" height="50" relative="1" as="geometry">
                        <mxPoint x="-2105.45" y="610" as="sourcePoint"/>
                        <mxPoint x="-2105.45" y="1110" as="targetPoint"/>
                    </mxGeometry>
                </mxCell>
            </root>
        </mxGraphModel>
    </diagram>
</mxfile>